<?xml version="1.0" encoding="UTF-8"?>
<svg xmlns="http://www.w3.org/2000/svg" xmlns:xlink="http://www.w3.org/1999/xlink" width="59px" height="59px" viewBox="0 0 59 59" version="1.1">
<g id="surface1">
<path style=" stroke:none;fill-rule:nonzero;fill:rgb(0%,0%,0%);fill-opacity:1;" d="M 11.210938 25.515625 L 11.210938 26.402344 L 10.398438 26.402344 C 9.882812 26.402344 9.585938 26.460938 9.585938 26.578125 C 9.585938 26.667969 9.882812 27.242188 10.238281 27.863281 C 10.589844 28.480469 10.945312 29.117188 11.03125 29.292969 C 11.164062 29.542969 11.0625 29.824219 10.324219 31.0625 L 9.441406 32.523438 L 10.324219 32.566406 L 11.195312 32.613281 L 11.238281 33.496094 L 11.285156 34.367188 L 12.804688 33.484375 L 14.320312 32.597656 L 15.828125 33.46875 L 17.332031 34.339844 L 17.417969 32.597656 L 18.214844 32.597656 C 18.6875 32.597656 19.027344 32.539062 19.027344 32.433594 C 19.027344 32.363281 18.660156 31.652344 18.214844 30.886719 L 17.40625 29.484375 L 18.273438 27.980469 L 19.144531 26.476562 L 18.230469 26.402344 L 17.332031 26.328125 L 17.285156 25.472656 L 17.242188 24.617188 L 16.84375 24.898438 C 16.625 25.046875 15.945312 25.445312 15.339844 25.78125 L 14.234375 26.371094 L 13.421875 25.902344 C 12.980469 25.648438 12.300781 25.253906 11.917969 25.03125 L 11.210938 24.617188 Z M 13.453125 27.730469 L 14.308594 28.203125 L 15.441406 27.539062 C 16.078125 27.183594 16.742188 26.800781 16.933594 26.710938 C 17.332031 26.492188 17.359375 26.460938 16.269531 28.363281 L 15.605469 29.5 L 16.195312 30.503906 C 16.519531 31.046875 16.890625 31.710938 17.023438 31.976562 L 17.273438 32.464844 L 16.933594 32.289062 C 16.742188 32.199219 16.078125 31.816406 15.457031 31.460938 L 14.308594 30.796875 L 13.171875 31.460938 C 11.269531 32.554688 11.296875 32.523438 11.519531 32.125 C 11.609375 31.933594 11.992188 31.269531 12.347656 30.652344 L 12.996094 29.515625 L 12.183594 28.113281 C 11.726562 27.347656 11.359375 26.683594 11.359375 26.625 C 11.359375 26.566406 11.636719 26.683594 11.992188 26.890625 C 12.332031 27.082031 12.996094 27.464844 13.453125 27.730469 Z M 13.453125 27.730469 "/>
<path style=" stroke:none;fill-rule:nonzero;fill:rgb(0%,0%,0%);fill-opacity:1;" d="M 19.972656 27.035156 C 19.941406 27.140625 19.925781 28.246094 19.941406 29.5 L 19.984375 31.785156 L 20.796875 31.832031 C 23.171875 31.976562 24.410156 30.886719 24.144531 28.878906 C 23.96875 27.566406 22.890625 26.84375 21.136719 26.84375 C 20.382812 26.84375 20.03125 26.902344 19.972656 27.035156 Z M 22.625 27.65625 C 23.230469 27.953125 23.601562 28.585938 23.601562 29.351562 C 23.601562 30.636719 22.773438 31.328125 21.34375 31.242188 L 20.578125 31.195312 L 20.53125 29.515625 C 20.515625 28.585938 20.53125 27.730469 20.5625 27.625 C 20.664062 27.359375 22.035156 27.375 22.625 27.65625 Z M 22.625 27.65625 "/>
<path style=" stroke:none;fill-rule:nonzero;fill:rgb(0%,0%,0%);fill-opacity:1;" d="M 33.113281 27.109375 C 32.449219 27.539062 32.183594 27.878906 31.992188 28.660156 C 31.832031 29.21875 31.832031 29.484375 31.992188 30.046875 C 32.332031 31.34375 33.277344 31.949219 34.765625 31.832031 C 36.152344 31.710938 36.949219 30.796875 36.933594 29.351562 C 36.933594 27.789062 36.121094 26.964844 34.515625 26.875 C 33.761719 26.84375 33.453125 26.890625 33.113281 27.109375 Z M 35.679688 27.820312 C 36.90625 28.835938 36.433594 30.914062 34.882812 31.269531 C 33.941406 31.476562 33.128906 31.109375 32.699219 30.28125 C 32.230469 29.398438 32.464844 28.378906 33.277344 27.746094 C 33.867188 27.273438 35.089844 27.316406 35.679688 27.820312 Z M 35.679688 27.820312 "/>
<path style=" stroke:none;fill-rule:nonzero;fill:rgb(0%,0%,0%);fill-opacity:1;" d="M 25.5625 28.246094 C 24.574219 28.675781 24.191406 30.089844 24.78125 31.046875 C 25.355469 31.964844 26.742188 32.183594 27.566406 31.476562 C 27.820312 31.269531 28.023438 31.035156 28.023438 30.960938 C 28.023438 30.722656 27.566406 30.8125 27.183594 31.121094 C 26.742188 31.476562 26.253906 31.492188 25.679688 31.195312 C 25.296875 31.003906 25.074219 30.710938 25.074219 30.371094 C 25.074219 30.296875 25.78125 30.238281 26.636719 30.238281 L 28.214844 30.238281 L 28.128906 29.632812 C 28.039062 28.941406 27.699219 28.511719 27.035156 28.230469 C 26.445312 27.980469 26.167969 27.980469 25.5625 28.246094 Z M 27.199219 28.925781 C 27.40625 29.085938 27.582031 29.351562 27.582031 29.515625 C 27.582031 29.78125 27.492188 29.808594 26.371094 29.765625 C 25.03125 29.722656 24.839844 29.574219 25.429688 28.984375 C 25.886719 28.527344 26.652344 28.496094 27.199219 28.925781 Z M 27.199219 28.925781 "/>
<path style=" stroke:none;fill-rule:nonzero;fill:rgb(0%,0%,0%);fill-opacity:1;" d="M 38.617188 28.304688 C 38.171875 28.554688 38.070312 28.570312 37.996094 28.394531 C 37.953125 28.277344 37.820312 28.171875 37.6875 28.171875 C 37.496094 28.171875 37.464844 28.496094 37.496094 30.710938 C 37.539062 32.863281 37.566406 33.261719 37.761719 33.261719 C 37.921875 33.261719 37.996094 33.039062 38.027344 32.332031 C 38.054688 31.832031 38.097656 31.417969 38.144531 31.417969 C 38.1875 31.417969 38.378906 31.519531 38.570312 31.652344 C 38.777344 31.785156 39.21875 31.890625 39.558594 31.890625 C 40.621094 31.875 41.34375 31.0625 41.328125 29.914062 C 41.300781 28.511719 39.839844 27.640625 38.617188 28.304688 Z M 40.339844 28.96875 C 41.300781 29.929688 40.664062 31.417969 39.308594 31.417969 C 38.71875 31.417969 38.054688 30.679688 38.054688 30.015625 C 38.054688 28.835938 39.53125 28.15625 40.339844 28.96875 Z M 40.339844 28.96875 "/>
<path style=" stroke:none;fill-rule:nonzero;fill:rgb(0%,0%,0%);fill-opacity:1;" d="M 42.242188 28.230469 C 41.121094 28.71875 41.535156 29.941406 42.90625 30.179688 C 43.484375 30.28125 44.101562 30.605469 44.101562 30.828125 C 44.101562 31.121094 43.617188 31.417969 43.128906 31.417969 C 42.773438 31.417969 42.507812 31.300781 42.273438 31.046875 C 41.847656 30.589844 41.566406 30.578125 41.625 30.988281 C 41.742188 31.800781 43.320312 32.214844 44.160156 31.652344 C 44.738281 31.285156 44.707031 30.472656 44.085938 30.105469 C 43.835938 29.941406 43.378906 29.78125 43.085938 29.722656 C 42.449219 29.601562 42.183594 29.410156 42.183594 29.058594 C 42.183594 28.527344 43.511719 28.421875 43.867188 28.925781 C 44 29.132812 44.175781 29.203125 44.324219 29.144531 C 44.882812 28.941406 43.761719 28.011719 42.964844 28.023438 C 42.820312 28.039062 42.496094 28.128906 42.242188 28.230469 Z M 42.242188 28.230469 "/>
<path style=" stroke:none;fill-rule:nonzero;fill:rgb(0%,0%,0%);fill-opacity:1;" d="M 28.171875 28.203125 C 28.171875 28.246094 28.527344 29.058594 28.953125 30.03125 C 29.988281 32.332031 30.046875 32.332031 31.078125 30.089844 C 31.507812 29.160156 31.84375 28.347656 31.859375 28.277344 C 31.859375 28.214844 31.742188 28.171875 31.59375 28.171875 C 31.386719 28.171875 31.167969 28.527344 30.738281 29.515625 C 30.414062 30.253906 30.105469 30.871094 30.03125 30.871094 C 29.972656 30.886719 29.664062 30.296875 29.351562 29.574219 C 28.925781 28.570312 28.71875 28.230469 28.480469 28.203125 C 28.304688 28.171875 28.171875 28.171875 28.171875 28.203125 Z M 28.171875 28.203125 "/>
</g>
</svg>
