<?xml version="1.0" standalone="no"?>
<!DOCTYPE svg PUBLIC "-//W3C//DTD SVG 20010904//EN"
 "http://www.w3.org/TR/2001/REC-SVG-20010904/DTD/svg10.dtd">
<svg version="1.0" xmlns="http://www.w3.org/2000/svg"
 width="400.000000pt" height="400.000000pt" viewBox="0 0 400.000000 400.000000"
 preserveAspectRatio="xMidYMid meet">

<g transform="translate(0.000000,400.000000) scale(0.100000,-0.100000)"
fill="#000000" stroke="none">
<path d="M760 2270 l0 -60 -55 0 c-35 0 -55 -4 -55 -12 0 -6 20 -45 44 -87 24
-42 48 -85 54 -97 9 -17 2 -36 -48 -120 l-60 -99 60 -3 59 -3 3 -60 3 -59 103
60 103 60 102 -59 102 -59 3 59 3 59 54 0 c32 0 55 4 55 11 0 5 -25 53 -55
105 l-55 95 59 102 59 102 -62 5 -61 5 -3 58 -3 58 -27 -19 c-15 -10 -61 -37
-102 -60 l-75 -40 -55 32 c-30 17 -76 44 -102 59 l-48 28 0 -61z m152 -150
l58 -32 77 45 c43 24 88 50 101 56 27 15 29 17 -45 -112 l-45 -77 40 -68 c22
-37 47 -82 56 -100 l17 -33 -23 12 c-13 6 -58 32 -100 56 l-78 45 -77 -45
c-129 -74 -127 -72 -112 -45 6 13 32 58 56 100 l44 77 -55 95 c-31 52 -56 97
-56 101 0 4 19 -4 43 -18 23 -13 68 -39 99 -57z"/>
<path d="M1354 2167 c-2 -7 -3 -82 -2 -167 l3 -155 55 -3 c161 -10 245 64 227
200 -12 89 -85 138 -204 138 -51 0 -75 -4 -79 -13z m180 -42 c41 -20 66 -63
66 -115 0 -87 -56 -134 -153 -128 l-52 3 -3 114 c-1 63 0 121 2 128 7 18 100
17 140 -2z"/>
<path d="M2245 2162 c-45 -29 -63 -52 -76 -105 -11 -38 -11 -56 0 -94 23 -88
87 -129 188 -121 94 8 148 70 147 168 0 106 -55 162 -164 168 -51 2 -72 -1
-95 -16z m174 -48 c83 -69 51 -210 -54 -234 -64 -14 -119 11 -148 67 -32 60
-16 129 39 172 40 32 123 29 163 -5z"/>
<path d="M1733 2085 c-67 -29 -93 -125 -53 -190 39 -62 133 -77 189 -29 17 14
31 30 31 35 0 16 -31 10 -57 -11 -30 -24 -63 -25 -102 -5 -26 13 -41 33 -41
56 0 5 48 9 106 9 l107 0 -6 41 c-6 47 -29 76 -74 95 -40 17 -59 17 -100 -1z
m111 -46 c14 -11 26 -29 26 -40 0 -18 -6 -20 -82 -17 -91 3 -104 13 -64 53 31
31 83 33 120 4z"/>
<path d="M2618 2081 c-30 -17 -37 -18 -42 -6 -3 8 -12 15 -21 15 -13 0 -15
-22 -13 -172 3 -146 5 -173 18 -173 11 0 16 15 18 63 2 34 5 62 8 62 3 0 16
-7 29 -16 14 -9 44 -16 67 -16 72 1 121 56 120 134 -2 95 -101 154 -184 109z
m117 -45 c65 -65 22 -166 -70 -166 -40 0 -85 50 -85 95 0 80 100 126 155 71z"/>
<path d="M2864 2086 c-76 -33 -48 -116 45 -132 39 -7 81 -29 81 -44 0 -20 -33
-40 -66 -40 -24 0 -42 8 -58 25 -29 31 -48 32 -44 4 8 -55 115 -83 172 -45 39
25 37 80 -5 105 -17 11 -48 22 -68 26 -43 8 -61 21 -61 45 0 36 90 43 114 9 9
-14 21 -19 31 -15 38 14 -38 77 -92 76 -10 -1 -32 -7 -49 -14z"/>
<path d="M1910 2088 c0 -3 24 -58 53 -124 70 -156 74 -156 144 -4 29 63 52
118 53 123 0 4 -8 7 -18 7 -14 0 -29 -24 -58 -91 -22 -50 -43 -92 -48 -92 -4
-1 -25 39 -46 88 -29 68 -43 91 -59 93 -12 2 -21 2 -21 0z"/>
</g>
</svg>
